<?xml version="1.0" encoding="UTF-8"?>
<svg version="1.1" xmlns="http://www.w3.org/2000/svg" width="353" height="242">
<path d="M0 0 C1.29478271 0.74612549 1.29478271 0.74612549 2.61572266 1.50732422 C3.60040527 2.06669678 4.58508789 2.62606934 5.59960938 3.20239258 C6.64906738 3.81606689 7.69852539 4.42974121 8.77978516 5.06201172 C9.88467285 5.69437744 10.98956055 6.32674316 12.12792969 6.97827148 C15.56260484 8.9496314 18.98512629 10.939737 22.40478516 12.93701172 C23.42056641 13.52949707 24.43634766 14.12198242 25.48291016 14.73242188 C29.39934277 17.01895024 33.31454044 19.30751146 37.22485352 21.60449219 C44.86774956 26.08121506 52.58884737 30.40612742 60.34228516 34.68701172 C69.0772605 39.51171211 77.75058921 44.40837122 86.31884766 49.52294922 C89.37341368 51.34233554 92.45602831 53.10525813 95.55322266 54.85107422 C96.42333984 55.34446289 97.29345703 55.83785156 98.18994141 56.34619141 C99.87353715 57.29908628 101.56086354 58.24543002 103.25244141 59.18408203 C104.01169922 59.6155957 104.77095703 60.04710937 105.55322266 60.49169922 C106.5613501 61.05606689 106.5613501 61.05606689 107.58984375 61.63183594 C109.88520463 63.28249497 110.98051657 64.45538622 112.40478516 66.93701172 C112.69562556 69.88710922 112.81482789 72.62424274 112.79296875 75.57348633 C112.80085419 76.87904732 112.80085419 76.87904732 112.80889893 78.21098328 C112.82209938 81.08729007 112.81335989 83.96304307 112.80322266 86.83935547 C112.80524356 88.83948371 112.80815514 90.83961122 112.81192017 92.83973694 C112.81634374 97.03198257 112.80991202 101.22403643 112.79589844 105.41625977 C112.77881767 110.7876537 112.7886406 116.15859757 112.80661583 121.52997494 C112.81746215 125.66068404 112.81400321 129.79128665 112.80623245 133.92199898 C112.80423222 135.90232967 112.80668349 137.88267005 112.81367111 139.86298943 C112.82129823 142.63263381 112.80966314 145.40155219 112.79296875 148.17114258 C112.79904144 148.98844849 112.80511414 149.80575439 112.81137085 150.64782715 C112.76028487 155.22753308 112.377034 158.22512278 109.40478516 161.93701172 C106.40478516 163.93701172 106.40478516 163.93701172 102.96728516 163.81201172 C98.96992277 162.83020341 97.85043015 162.17488122 95.40478516 158.93701172 C94.88580322 155.64666748 94.88580322 155.64666748 94.85888672 151.68994141 C94.84854904 150.96759308 94.83821136 150.24524475 94.82756042 149.50100708 C94.79812853 147.12007286 94.79663325 144.73998857 94.79541016 142.35888672 C94.78042867 140.70548887 94.76370158 139.052106 94.74530029 137.39874268 C94.70161058 133.05207635 94.68162422 128.70561189 94.66656494 124.35876465 C94.6469996 119.92118383 94.60502899 115.48382121 94.56494141 111.04638672 C94.48962178 102.34331879 94.4393411 93.6403365 94.40478516 84.93701172 C86.90317069 87.49898102 79.52326243 90.68892466 74.40478516 96.93701172 C71.18416346 105.87401106 72.25149551 115.92573853 72.74279785 125.28326416 C72.94119279 129.45357454 73.00761188 133.62770367 73.08559513 137.80170536 C73.14749808 141.04782554 73.23779594 144.28678825 73.38414001 147.53038025 C73.42889969 148.69251541 73.47365936 149.85465057 73.51977539 151.05200195 C73.56899643 152.07059799 73.61821747 153.08919403 73.66893005 154.13865662 C73.3546252 157.46840711 72.35750562 159.25076179 70.40478516 161.93701172 C68.35717773 163.49609375 68.35717773 163.49609375 65.98681641 164.81982422 C65.09559082 165.32545898 64.20436523 165.83109375 63.28613281 166.35205078 C62.33528809 166.87508789 61.38444336 167.398125 60.40478516 167.93701172 C59.45522949 168.47293945 58.50567383 169.00886719 57.52734375 169.56103516 C54.39060105 171.32663914 51.24284666 173.07119378 48.09228516 174.81201172 C46.36220215 175.77071167 46.36220215 175.77071167 44.59716797 176.7487793 C38.21569057 180.28408601 31.82794357 183.80804374 25.43994141 187.33154297 C24.45951118 187.87234497 24.45951118 187.87234497 23.45927429 188.42407227 C20.29422628 190.1696536 17.12868338 191.91432617 13.9621582 193.65722656 C12.81400635 194.28967285 11.66585449 194.92211914 10.48291016 195.57373047 C8.87899414 196.45230713 8.87899414 196.45230713 7.24267578 197.34863281 C4.93394162 198.6408407 2.69518825 199.99459635 0.45166016 201.39404297 C-3.0150754 203.14963341 -4.7582997 203.24569812 -8.59521484 202.93701172 C-11.19384766 201.90234375 -11.19384766 201.90234375 -13.79833984 200.44482422 C-14.7694873 199.90962158 -15.74063477 199.37441895 -16.74121094 198.82299805 C-17.76553223 198.24187256 -18.78985352 197.66074707 -19.84521484 197.06201172 C-20.9120752 196.4699292 -21.97893555 195.87784668 -23.078125 195.26782227 C-26.25654058 193.5014803 -29.42593114 191.71967001 -32.59521484 189.93701172 C-34.24267211 189.02248325 -35.89101548 188.10954789 -37.54052734 187.19873047 C-40.45834802 185.5868826 -43.37257317 183.96893391 -46.28271484 182.34326172 C-49.27887565 180.66958215 -52.27916278 179.00364116 -55.28271484 177.34326172 C-62.0536015 173.59918646 -68.8189064 169.84520705 -75.53271484 165.99951172 C-76.44923828 165.47486328 -77.36576172 164.95021484 -78.31005859 164.40966797 C-81.73009452 162.20564482 -83.29609708 160.834365 -84.59521484 156.93701172 C-84.68410316 154.95858411 -84.71282357 152.97724538 -84.70874023 150.99682617 C-84.7086647 149.7757869 -84.70858917 148.55474762 -84.70851135 147.29670715 C-84.70335007 145.97789047 -84.69818878 144.65907379 -84.69287109 143.30029297 C-84.69100565 141.93694612 -84.68958234 140.57359861 -84.68858337 139.21025085 C-84.68476817 135.62472681 -84.67494639 132.03924337 -84.66387939 128.45373535 C-84.65364385 124.79386952 -84.64908116 121.13399712 -84.64404297 117.47412109 C-84.63332323 110.29506614 -84.61625877 103.11604462 -84.59521484 95.93701172 C-85.99392822 95.48683182 -85.99392822 95.48683182 -87.42089844 95.02755737 C-90.63949151 93.92180034 -93.29087712 92.54323107 -96.22021484 90.81982422 C-97.25662109 90.21267578 -98.29302734 89.60552734 -99.36083984 88.97998047 C-100.42818359 88.34705078 -101.49552734 87.71412109 -102.59521484 87.06201172 C-103.66255859 86.43681641 -104.72990234 85.81162109 -105.82958984 85.16748047 C-121.70553594 75.82752711 -121.70553594 75.82752711 -123.59521484 71.93701172 C-123.59521484 68.43701172 -123.59521484 68.43701172 -122.59521484 64.93701172 C-118.73121398 61.30719272 -114.22456484 58.93663776 -109.59521484 56.43701172 C-107.96959566 55.54621365 -106.34462064 54.65423927 -104.72021484 53.76123047 C-103.87587891 53.29765137 -103.03154297 52.83407227 -102.16162109 52.35644531 C-97.95011953 50.02713879 -93.77163753 47.64099855 -89.59521484 45.24951172 C-88.29753174 44.50689087 -88.29753174 44.50689087 -86.97363281 43.74926758 C-79.87910147 39.68342209 -72.80005951 35.59085559 -65.72021484 31.49951172 C-56.49779442 26.1702484 -47.25483959 20.88009274 -37.96508789 15.66894531 C-33.18088107 12.98209125 -28.42504212 10.25804353 -23.70458984 7.46044922 C-22.75173096 6.90059326 -21.79887207 6.3407373 -20.81713867 5.76391602 C-19.01113897 4.7005852 -17.21106387 3.62710176 -15.41821289 2.54174805 C-14.60908447 2.06761475 -13.79995605 1.59348145 -12.96630859 1.10498047 C-12.2643335 0.68498779 -11.5623584 0.26499512 -10.83911133 -0.16772461 C-6.96678115 -1.7126963 -3.83874922 -1.57233435 0 0 Z M-11.41552734 19.50732422 C-12.41326172 20.06677734 -13.41099609 20.62623047 -14.43896484 21.20263672 C-15.52177734 21.81623047 -16.60458984 22.42982422 -17.72021484 23.06201172 C-18.84169922 23.69365234 -19.96318359 24.32529297 -21.11865234 24.97607422 C-29.64660582 29.78830871 -38.1070373 34.71392587 -46.55053711 39.67260742 C-53.86801597 43.95968189 -61.24790519 48.1243998 -68.65771484 52.24951172 C-79.19424136 58.12275931 -79.19424136 58.12275931 -89.65771484 64.12451172 C-90.27718994 64.47489502 -90.89666504 64.82527832 -91.53491211 65.1862793 C-93.36229876 66.23032212 -93.36229876 66.23032212 -95.59521484 67.93701172 C-95.59521484 68.92701172 -95.59521484 69.91701172 -95.59521484 70.93701172 C-89.45467395 76.4031239 -81.20331921 80.02347401 -74.03271484 83.93701172 C-71.61534508 85.26542345 -69.20043363 86.59824207 -66.78662109 87.93310547 C-66.18015747 88.2684581 -65.57369385 88.60381073 -64.94885254 88.94932556 C-59.07028116 92.21025871 -53.26437638 95.59106768 -47.47021484 98.99951172 C-37.89448214 104.63172803 -28.23771644 110.10138367 -18.52636719 115.49584961 C-17.5320166 116.04877686 -16.53766602 116.6017041 -15.51318359 117.17138672 C-14.63428467 117.65833008 -13.75538574 118.14527344 -12.84985352 118.64697266 C-11.05616141 119.67327142 -9.31468669 120.79069715 -7.59521484 121.93701172 C-3.30739447 121.62671132 -0.28986932 120.47449508 3.36181641 118.26904297 C4.29751465 117.71216797 5.23321289 117.15529297 6.19726562 116.58154297 C7.19387207 115.97697266 8.19047852 115.37240234 9.21728516 114.74951172 C11.36059995 113.47272787 13.50517348 112.19805513 15.65087891 110.92529297 C16.75802246 110.2673877 17.86516602 109.60948242 19.00585938 108.93164062 C25.55824761 105.08643075 32.20902832 101.41654241 38.85327148 97.7331543 C43.36452416 95.22532642 47.84591274 92.69297251 52.25634766 90.01123047 C56.18873993 87.62955253 60.18298715 85.37858462 64.21728516 83.17529297 C64.80393951 82.85418549 65.39059387 82.533078 65.99502563 82.20223999 C68.41684022 80.87788826 70.83943687 79.55515545 73.26757812 78.24243164 C75.06696914 77.26825567 76.86117946 76.28506992 78.65478516 75.30029297 C79.71181641 74.72577393 80.76884766 74.15125488 81.85791016 73.55932617 C84.63245087 72.03292101 84.63245087 72.03292101 86.40478516 68.93701172 C85.70321289 68.53611328 85.00164062 68.13521484 84.27880859 67.72216797 C58.9288737 53.23649089 33.5789388 38.7508138 8.22900391 24.26513672 C7.21241699 23.68570313 6.19583008 23.10626953 5.1484375 22.50927734 C3.47161684 21.5483657 1.79894883 20.58010105 0.13378906 19.59912109 C-5.02726136 16.56492826 -6.26024698 16.60695052 -11.41552734 19.50732422 Z M-66.59521484 107.93701172 C-69.57249641 110.91429329 -67.91898453 122.07492453 -67.9453125 126.30981445 C-67.96186959 128.26436268 -67.98915641 130.21885042 -68.02734375 132.1730957 C-68.08206825 134.98664862 -68.10398007 137.79877975 -68.11865234 140.61279297 C-68.14132172 141.48583572 -68.16399109 142.35887848 -68.18734741 143.25837708 C-68.20917189 148.26366919 -68.20917189 148.26366919 -65.4543457 152.29638672 C-64.03907593 153.10849609 -64.03907593 153.10849609 -62.59521484 153.93701172 C-61.61319092 154.52442139 -60.63116699 155.11183105 -59.61938477 155.71704102 C-58.53246338 156.30912354 -57.44554199 156.90120605 -56.32568359 157.51123047 C-55.43468964 157.99968948 -55.43468964 157.99968948 -54.5256958 158.49801636 C-52.61390747 159.54490948 -50.69854535 160.58503704 -48.78271484 161.62451172 C-46.16199427 163.05249995 -43.54255346 164.4828242 -40.92333984 165.91357422 C-40.28420151 166.26208939 -39.64506317 166.61060455 -38.98655701 166.96968079 C-35.38393796 168.93925948 -31.81084913 170.94851938 -28.26708984 173.02294922 C-27.53208252 173.4513208 -26.7970752 173.87969238 -26.03979492 174.32104492 C-24.74204602 175.08302448 -23.44975304 175.85440771 -22.16430664 176.63696289 C-18.99704505 178.56599586 -18.99704505 178.56599586 -15.41577148 178.51879883 C-14.81498779 178.32680908 -14.2142041 178.13481934 -13.59521484 177.93701172 C-10.20085729 155.19426302 -10.20085729 155.19426302 -15.54785156 133.84667969 C-20.90032931 129.03725216 -27.36782204 126.6874801 -34.07324219 124.30908203 C-40.20042421 121.9220889 -45.69769178 118.46196792 -51.34521484 115.12451172 C-53.41772903 113.94145088 -55.49547355 112.7674809 -57.57958984 111.60498047 C-58.45325195 111.11280029 -59.32691406 110.62062012 -60.22705078 110.11352539 C-62.38622941 109.04083654 -64.21677697 108.30519815 -66.59521484 107.93701172 Z M54.40478516 106.93701172 C40.8313434 114.65170366 27.26320056 122.3782913 13.77978516 130.24951172 C12.8572998 130.7814917 11.93481445 131.31347168 10.984375 131.86157227 C10.14084473 132.3569751 9.29731445 132.85237793 8.42822266 133.36279297 C7.69522949 133.78987549 6.96223633 134.21695801 6.20703125 134.65698242 C4.11922288 135.97842982 4.11922288 135.97842982 2.40478516 138.93701172 C2.23256168 141.91092233 2.17284315 144.7890409 2.20947266 147.76123047 C2.21230255 148.62263138 2.21513245 149.48403229 2.2180481 150.37153625 C2.22924278 153.12266941 2.25434594 155.87347697 2.27978516 158.62451172 C2.28981588 160.48974139 2.29894157 162.35497617 2.30712891 164.22021484 C2.32917978 168.79260591 2.36370467 173.36475361 2.40478516 177.93701172 C5.27449963 178.82009967 6.0879748 179.0674471 8.97241211 177.87988281 C9.93622803 177.32896973 10.90004395 176.77805664 11.89306641 176.21044922 C12.98192139 175.5962915 14.07077637 174.98213379 15.19262695 174.34936523 C16.36764766 173.67048038 17.54253083 172.99135741 18.71728516 172.31201172 C19.91951651 171.628495 21.12240472 170.9461324 22.32592773 170.26489258 C24.79768137 168.86337006 27.26539408 167.4551027 29.72998047 166.04101562 C34.31310129 163.41291015 38.9173872 160.82293959 43.52075195 158.23046875 C47.82011521 155.80757029 52.11302533 153.37334658 56.40478516 150.93701172 C56.45412914 144.99219991 56.49047797 139.04750663 56.51464844 133.10253906 C56.52472186 131.07908045 56.53838111 129.05563644 56.55566406 127.03222656 C56.57985363 124.12805583 56.59125464 121.22407711 56.60009766 118.31982422 C56.61042023 117.41144806 56.6207428 116.5030719 56.63137817 115.56716919 C56.63152924 114.72644867 56.6316803 113.88572815 56.63183594 113.01953125 C56.63849777 111.90700485 56.63849777 111.90700485 56.64529419 110.77200317 C56.5616284 108.68771029 56.5616284 108.68771029 54.40478516 106.93701172 Z " fill="#E9E8E4" transform="translate(179.59521484375,20.06298828125)"/>
<path d="" fill="#000000" transform="translate(0,0)"/>
<path d="" fill="#000000" transform="translate(0,0)"/>
<path d="" fill="#000000" transform="translate(0,0)"/>
<path d="" fill="#000000" transform="translate(0,0)"/>
<path d="" fill="#000000" transform="translate(0,0)"/>
<path d="" fill="#000000" transform="translate(0,0)"/>
<path d="" fill="#000000" transform="translate(0,0)"/>
<path d="" fill="#000000" transform="translate(0,0)"/>
<path d="" fill="#000000" transform="translate(0,0)"/>
<path d="" fill="#000000" transform="translate(0,0)"/>
<path d="" fill="#000000" transform="translate(0,0)"/>
<path d="" fill="#000000" transform="translate(0,0)"/>
<path d="" fill="#000000" transform="translate(0,0)"/>
<path d="" fill="#000000" transform="translate(0,0)"/>
<path d="" fill="#000000" transform="translate(0,0)"/>
<path d="" fill="#000000" transform="translate(0,0)"/>
<path d="" fill="#000000" transform="translate(0,0)"/>
<path d="" fill="#000000" transform="translate(0,0)"/>
<path d="" fill="#000000" transform="translate(0,0)"/>
<path d="" fill="#000000" transform="translate(0,0)"/>
<path d="" fill="#000000" transform="translate(0,0)"/>
<path d="" fill="#000000" transform="translate(0,0)"/>
<path d="" fill="#000000" transform="translate(0,0)"/>
<path d="" fill="#000000" transform="translate(0,0)"/>
<path d="" fill="#000000" transform="translate(0,0)"/>
<path d="" fill="#000000" transform="translate(0,0)"/>
<path d="" fill="#000000" transform="translate(0,0)"/>
<path d="" fill="#000000" transform="translate(0,0)"/>
<path d="" fill="#000000" transform="translate(0,0)"/>
<path d="" fill="#000000" transform="translate(0,0)"/>
<path d="" fill="#000000" transform="translate(0,0)"/>
<path d="" fill="#000000" transform="translate(0,0)"/>
<path d="" fill="#000000" transform="translate(0,0)"/>
<path d="" fill="#000000" transform="translate(0,0)"/>
<path d="" fill="#000000" transform="translate(0,0)"/>
<path d="" fill="#000000" transform="translate(0,0)"/>
<path d="" fill="#000000" transform="translate(0,0)"/>
<path d="" fill="#000000" transform="translate(0,0)"/>
<path d="" fill="#000000" transform="translate(0,0)"/>
<path d="" fill="#000000" transform="translate(0,0)"/>
<path d="" fill="#000000" transform="translate(0,0)"/>
<path d="" fill="#000000" transform="translate(0,0)"/>
<path d="" fill="#000000" transform="translate(0,0)"/>
<path d="" fill="#000000" transform="translate(0,0)"/>
<path d="" fill="#000000" transform="translate(0,0)"/>
<path d="" fill="#000000" transform="translate(0,0)"/>
<path d="" fill="#000000" transform="translate(0,0)"/>
<path d="" fill="#000000" transform="translate(0,0)"/>
<path d="" fill="#000000" transform="translate(0,0)"/>
<path d="" fill="#000000" transform="translate(0,0)"/>
<path d="" fill="#000000" transform="translate(0,0)"/>
<path d="" fill="#000000" transform="translate(0,0)"/>
<path d="" fill="#000000" transform="translate(0,0)"/>
<path d="" fill="#000000" transform="translate(0,0)"/>
<path d="" fill="#000000" transform="translate(0,0)"/>
<path d="" fill="#000000" transform="translate(0,0)"/>
<path d="" fill="#000000" transform="translate(0,0)"/>
<path d="" fill="#000000" transform="translate(0,0)"/>
<path d="" fill="#000000" transform="translate(0,0)"/>
<path d="" fill="#000000" transform="translate(0,0)"/>
<path d="" fill="#000000" transform="translate(0,0)"/>
<path d="" fill="#000000" transform="translate(0,0)"/>
<path d="" fill="#000000" transform="translate(0,0)"/>
<path d="" fill="#000000" transform="translate(0,0)"/>
<path d="" fill="#000000" transform="translate(0,0)"/>
<path d="" fill="#000000" transform="translate(0,0)"/>
<path d="" fill="#000000" transform="translate(0,0)"/>
<path d="" fill="#000000" transform="translate(0,0)"/>
<path d="" fill="#000000" transform="translate(0,0)"/>
</svg>
